<?xml version="1.0" encoding="UTF-8"?>
<svg xmlns="http://www.w3.org/2000/svg" version="1.1" width="430" height="110">
 <g transform="translate(0,5)">
  <polygon fill="white" stroke="black" stroke-width="5"
    points="0,0 20,0 20,40 40,40 40,0 100,0 100,20 60,20 60,40 100,40 100,100 80,100 80,60 60,60 60,100 0,100 0,80 40,80 40,60 0,60 0,0" />
 </g>
 <g transform="translate(110,5)">
  <polygon fill="black" stroke="red" stroke-width="5"
    points="0,0 20,0 20,40 40,40 40,0 100,0 100,20 60,20 60,40 100,40 100,100 80,100 80,60 60,60 60,100 0,100 0,80 40,80 40,60 0,60 0,0"  transform="scale(1,-1) translate(0,-100)"/>
 </g>
  <g transform="translate(220,5)">
  <polygon fill="black" stroke="white" stroke-width="5"
    points="0,0 20,0 20,40 40,40 40,0 100,0 100,20 60,20 60,40 100,40 100,100 80,100 80,60 60,60 60,100 0,100 0,80 40,80 40,60 0,60 0,0" />
 </g>
  <g transform="translate(330,5)">
  <polygon fill="white" stroke="red" stroke-width="5"
    points="0,0 20,0 20,40 40,40 40,0 100,0 100,20 60,20 60,40 100,40 100,100 80,100 80,60 60,60 60,100 0,100 0,80 40,80 40,60 0,60 0,0"  transform="scale(1,-1) translate(0,-100)"/>
 </g>
</svg>
